<?xml version="1.0" encoding="UTF-8"?><svg id="Layer_2" xmlns="http://www.w3.org/2000/svg" width="239.5" height="277.17" viewBox="0 0 239.5 277.17"><defs><style>.cls-1{fill:none;}.cls-2{fill:#001423;}.cls-3{fill:#efefef;}.cls-4{fill:#88ce02;}.cls-5{opacity:.3;}.cls-5,.cls-6{fill-rule:evenodd;isolation:isolate;}.cls-6{opacity:.4;}</style></defs><g id="Layer_1-2"><g><path class="cls-1" d="M112.32,175.01c-.78-.15-1.59-.28-2.41-.4,.82,.12,1.63,.25,2.41,.4Z"/><path class="cls-1" d="M114.66,175.54c-.48-.12-.98-.23-1.48-.34,.5,.1,.99,.22,1.48,.34Z"/><path class="cls-1" d="M116.87,176.17c-.39-.12-.78-.24-1.18-.35,.41,.11,.8,.23,1.18,.35Z"/><path class="cls-1" d="M109.12,174.52c-.62-.08-1.25-.14-1.89-.2,.64,.06,1.27,.13,1.89,.2Z"/><path class="cls-1" d="M218.93,118.28c-.89-2.89-7.8-5.69-4.22-13.29-1.73-.43-2.94-1.06-3.83-1.87-1.24,3.68-2.2,8.01-2.24,12.92-.12,1.01-.26,2.65-.39,4.24,1.07-.94,2.39-1.75,3.73-1.68,2.77,.16,5.3,.66,6.95-.32Z"/><path class="cls-1" d="M106.25,174.25c-.64-.04-1.3-.08-1.97-.1,.67,.02,1.33,.06,1.97,.1Z"/><path class="cls-1" d="M121.68,178.07c-.23-.11-.47-.21-.7-.32,.23,.11,.47,.21,.7,.32Z"/><path class="cls-1" d="M131.62,185.51c-.07-.07-.13-.14-.2-.22,.07,.08,.13,.15,.2,.22Z"/><path class="cls-1" d="M129.03,182.98c-.07-.06-.15-.12-.22-.19,.07,.06,.15,.13,.22,.19Z"/><path class="cls-1" d="M135.06,189.77c-.23-.32-.46-.64-.7-.95,.24,.31,.47,.63,.7,.95Z"/><path class="cls-1" d="M123.47,179.02c-.2-.12-.41-.23-.62-.34,.2,.11,.41,.22,.62,.34Z"/><path class="cls-1" d="M97.88,174.15c-6.55-.02-12.08-.77-16.72-2.23,4.64,1.47,10.18,2.22,16.72,2.23Z"/><path class="cls-1" d="M133.76,188.02c-.13-.17-.27-.33-.41-.5,.14,.17,.28,.33,.41,.5Z"/><path class="cls-1" d="M125.08,180c-.15-.1-.31-.2-.46-.3,.15,.1,.31,.2,.46,.3Z"/><path class="cls-1" d="M118.96,176.9c-.34-.13-.68-.26-1.03-.39,.35,.13,.69,.26,1.03,.39Z"/><path class="cls-1" d="M59.83,137.69c-.09-.59-.18-1.18-.28-1.76,.1,.58,.19,1.17,.28,1.76Z"/><path class="cls-1" d="M100.39,174.12c1.02-.03,2.01-.02,2.99,0-.98-.02-1.97-.02-2.99,0Z"/><path class="cls-1" d="M60.12,139.83c-.07-.59-.15-1.19-.23-1.78,.08,.6,.15,1.19,.23,1.78Z"/><path class="cls-1" d="M59.5,135.68c-.11-.63-.22-1.25-.35-1.87,.13,.62,.24,1.25,.35,1.87Z"/><path class="cls-1" d="M50.21,113.81c4.11,4.34,6.83,10.76,8.49,17.91-1.66-7.16-4.38-13.58-8.48-17.92t0,0Z"/><path class="cls-1" d="M59.13,133.71c-.13-.66-.27-1.32-.43-1.97,.16,.65,.3,1.31,.43,1.97Z"/><path class="cls-1" d="M130.1,183.97c.11,.1,.21,.2,.32,.31-.11-.11-.22-.21-.32-.31Z"/><path class="cls-1" d="M81.16,171.92c-2.32-.73-4.42-1.64-6.31-2.72,1.89,1.08,3.99,1.99,6.31,2.72Z"/><path class="cls-1" d="M60.39,142.32c-.07-.71-.14-1.42-.23-2.12,.09,.71,.17,1.41,.23,2.12Z"/><path class="cls-2" d="M146.02,133.86c.3,.12,1.94,1.44,2.63,1.99s2.08,.58,2.08,.58c-1.79-1.4-3.29-1.95-4.58-2.68-.03,.03-.07,.06-.13,.11Z"/><path d="M204.46,206.76c.13-.64,.21-1.01,.21-1.01,0,0-.02,0-.03,0-.04,.17-.1,.51-.2,1,0,0,0,0,.02,0Z"/><path d="M201.38,226.83c0,.05,0,.1,0,.14,.1-1,.22-2,.33-2.97,0,.06-.02,.11-.03,.17-.1,.88-.2,1.77-.29,2.66Z"/><path d="M180.3,253.73c-1.74,2.32-3.16,6.13-2.79,8.47,.07,.46,.21,.87,.44,1.2-1.09-2.15,.27-6.9,2.35-9.67Z"/><path d="M201.68,224.17c0-.06,.02-.11,.03-.17,.95-7.9,2.25-14.75,2.75-17.24,0,0-.02,0-.02,0-.53,2.63-1.83,9.53-2.76,17.42Z"/><path d="M200.65,239.41c0-4.01,.3-8.3,.72-12.43,0-.05,0-.1,0-.14-.43,4.17-.73,8.51-.73,12.57Z"/><path d="M177.61,204.8c-1.48-.38-2.31-.67-2.31-.67,0,0,.83,.29,2.3,.69,0,0,0-.01,0-.02Z"/><path d="M177.93,204.91c.21,.05,.45,.1,.69,.15-.36-.09-.7-.17-1.01-.25t0,.02c.11,.02,.22,.05,.33,.08Z"/><path d="M178.43,264c-.06-.09-.11-.17-.16-.26-.13-.11-.24-.22-.33-.35,.11,.23,.29,.42,.49,.61Z"/><path d="M178.62,205.06c-.24-.05-.47-.1-.69-.15,4.72,1.23,15.24,3.28,26.7,.85,.02-.08,.03-.14,.03-.14-.11,.02-.23,.04-.34,.07-10.81,2.21-20.74,.55-25.7-.63Z"/><path d="M201.37,248.84c-.52-2.75-.73-5.99-.73-9.43,0,3.44,.21,6.67,.73,9.43Z"/><path d="M194.03,265.1h0c-6.7,0-13.76,.25-15.76-1.36,.05,.09,.1,.18,.16,.26,2.09,1.96,8.83,2.25,15.6,1.1Z"/><path d="M201.38,226.83c.09-.9,.19-1.78,.3-2.66,0,.06-.02,.13-.03,.19-.11,.66-.2,1.51-.27,2.47Z"/><path d="M201.38,226.83c.09-.9,.19-1.78,.3-2.66,0,.06-.02,.13-.03,.19-.11,.66-.2,1.51-.27,2.47Z"/><path d="M177.61,204.83c.11,.03,.21,.05,.33,.08-.12-.03-.23-.06-.33-.08h0Z"/><path d="M177.61,204.83c.11,.03,.21,.05,.33,.08-.12-.03-.23-.06-.33-.08h0Z"/><path d="M216.26,258.22c4.06,3.11,13.12,4.88,15.42,6.44,.35,.24,.61,.48,.8,.72-1.12-3.54-8.38-5.39-8.38-5.39-18.06-6.64-22.02-10.34-22.64-11.03,0,.13,.03,.26,.04,.38,.15,1.22,10.94,5.95,14.76,8.88Z"/><path d="M216.26,258.22c4.06,3.11,13.12,4.88,15.42,6.44,.35,.24,.61,.48,.8,.72-1.12-3.54-8.38-5.39-8.38-5.39-18.06-6.64-22.02-10.34-22.64-11.03,0,.13,.03,.26,.04,.38,.15,1.22,10.94,5.95,14.76,8.88Z"/><path d="M177.94,263.4c.09,.12,.2,.24,.33,.35-1.09-2.01-.18-4.94,1.32-8.08,.46-.97,.84-1.8,1.14-2.57-.13,.21-.28,.42-.44,.64-2.07,2.76-3.43,7.51-2.35,9.66Z"/><path d="M177.94,263.4c.09,.12,.2,.24,.33,.35-1.09-2.01-.18-4.94,1.32-8.08,.46-.97,.84-1.8,1.14-2.57-.13,.21-.28,.42-.44,.64-2.07,2.76-3.43,7.51-2.35,9.66Z"/><path d="M177.93,204.91c-.11-.03-.22-.05-.33-.08h0c-1.47-.4-2.3-.7-2.3-.7-.4,.87-.69,1.77-.88,2.7,.97,.32,3.12,1.16,8.28,1.54,7.58,.55,17.72-.89,20.43-1.55,.65-.16,1.06-.17,1.3-.07,.1-.49,.17-.83,.2-1-11.45,2.44-21.97,.39-26.7-.84Z"/><path d="M177.93,204.91c-.11-.03-.22-.05-.33-.08h0c-1.47-.4-2.3-.7-2.3-.7-.4,.87-.69,1.77-.88,2.7,.97,.32,3.12,1.16,8.28,1.54,7.58,.55,17.72-.89,20.43-1.55,.65-.16,1.06-.17,1.3-.07,.1-.49,.17-.83,.2-1-11.45,2.44-21.97,.39-26.7-.84Z"/><path d="M181.2,237.79c-.46-3.81-1.37-6.62-2.37-9.06,.95,2.98,1.83,6.02,2.37,9.06Z"/><path d="M181.2,237.79c-.46-3.81-1.37-6.62-2.37-9.06,.95,2.98,1.83,6.02,2.37,9.06Z"/><path d="M200.65,239.41c0-4.05,.3-8.4,.73-12.57,.07-.97,.16-1.81,.27-2.47,0-.06,.02-.13,.03-.19,.93-7.89,2.23-14.79,2.76-17.42-.24-.1-.64-.09-1.3,.07-2.71,.67-12.85,2.11-20.43,1.55-5.16-.38-7.3-1.22-8.28-1.54-1.29,6.26,1.83,13.88,4.4,21.9,1,2.44,1.91,5.24,2.37,9.06,.31,1.75,.51,3.5,.56,5.25,.12,5.11,.67,7.39-1.02,10.06-.31,.77-.68,1.6-1.14,2.57-1.5,3.14-2.41,6.07-1.32,8.08,1.99,1.61,9.06,1.36,15.76,1.36h0c7.04-1.19,17.4,1.88,28.15,2.16s10.47-.68,10.47-.68c.04-.42-.03-.82-.15-1.2-.19-.24-.45-.48-.8-.72-2.3-1.55-11.37-3.33-15.42-6.44-3.82-2.92-14.61-7.66-14.75-8.88,0-.12-.03-.25-.04-.38-.07-.08-.1-.12-.1-.12-.55-2.78-.76-6.01-.75-9.45Z"/><g><path class="cls-3" d="M185.49,50.38c1.57,.32,4.32-1.31,6.33-2.5,.33-.2,.65-.38,.95-.56-.45-1.22,.03-3.12-.06-6.18-.05-1.46-.14-3.15-.26-4.83-1.88,1.79-4.12,3.57-5.9,4.46-1.14,.57-3.65,.3-6.57,.29-3.11-.02-6.64,.17-8.1-1.07-1.5-1.28-3.32-3.12-5.03-4.84-.02,.36-.05,.71-.08,1.07-.16,2.05-.38,3.28-.68,4.85-.09,.48,1.36,1.74,3,4.01,4.07,2.4,13.35,4.67,16.4,5.3Z"/><path class="cls-3" d="M236.16,104.18c-1.47-4.76-5.4-5.63-11.81-1.98,2.53-4.21,5.9-4.23,6.45-5.77,2.49-6.92-1.63-12.92-3.37-14.91,2.08-5.12,3.99-12.49-2.8-19.09-2.88-2.8-6.64-3.36-10-3.08,5.11,4.84,9.37,12.38,6.99,20.12-.27,.86-2.43,1.99-4.71,2.84,0,0,1.25,5.46-.97,9.78-.88,1.72-2.24,4.13-3.54,7.14,.04,.04,.09,.09,.13,.13,2.74,2.55,4.48,2.85,8.31,3.57-2.55,.21-3.36,1.05-3.47,1.52-2.11,9.36,3.92,9.68,4.15,14.93,0,.11,.02,.21,.02,.33v.05c-.9,.84-4.04,1.41-7.03,1.32-3.05-.1-5.12,2.75-5.12,2.75-.44,.41-.83,.8-1.17,1.18,.06,1.17,.1,2.25,.1,2.8,0,1.22,.8,4.48,1.23,6.94,2.55,1.57,3.79,2.55,6.27,3.18,1.52,.38,2.81,.63,4.08,.29,.95-.25,1.88-.82,2.88-1.9,4.3-4.62,5.42-8.94,6.02-11.44,.06-.24,.11-.47,.16-.67,.08,.16,.16,.33,.23,.48,4.26-4.72,9.19-13.31,6.97-20.51Z"/><path class="cls-3" d="M207.47,139.12s0,0,0,0c-.36-2.37-1.26-5-1.87-8.66-.43-2.56-1.06-5.49-1.13-9.43h0c.06-.14,.12-.43,.17-.81,0-.06,.02-.12,.03-.18-3.06,.39-17.8,2.01-29.39-1.05-8.54-2.26-10.89-3.43-11.49-3.97-.08,.58-.17,1.23-.25,1.9-.09,.71-.17,1.44-.23,2.11h.02c-.22,.53-.42,1.07-.61,1.62,.1,.12,.2,.24,.32,.38,1.34,1.52,4.33,3.62,4.34,5.75,0,.2,0,.39-.07,.59-.35,1.27-1.15,1.54-2.28,2.75-.51,.54-3.97,4.26-4.74,4.74-.53,.33-1.05,.79-1.64,1.11-.46,.25-1.87,1.34-2.36,1.58-.3,.14-.57,.27-.84,.39-9.33,29.5-4.98,42.48-3.12,48.55-5.13,6.52-8.73,10.23-10.63,16.22,0,0-.02,0-.03,0-.07,.23-.13,.45-.2,.67-4.81,15.41-3.07,28.61-5.03,41.62,1.86,.95,8.7,2.63,13.17,1.73,.61-.14,.02-10.99,1.8-15.81,2.46-6.66,6.49-12.14,8.47-23.94h.03c0-.11,.02-.22,.03-.34,0-.08,.03-.15,.04-.22h-.02c.14-1.66,.23-3.5,.29-5.62,0-.45-1.82,.91-3,2.56,.97-4.97,3.62-5.88,5.71-8.89,.93-1.34,1.72-3.19,1.79-5.67,11.04-7.53,15.16-16.87,17.6-26.54,1.71-6.81,4.01-17.72,6.9-20.77-.72,2.66-1.26,5.13-1.69,7.48-1.82,9.84-1.77,17.3-5.44,25.62,2.77,7.31,5.43,10.98,5.7,21.29-5.58-.11-8.85,4.51-10.2,8.93t0,.02h0c.11,.04,.21,.06,.33,.09,.21,.05,.45,.1,.69,.15,3.83,.78,11.17,1.53,22.85,0,.34-1.53,.75-3.02,1.27-4.28,.89-2.17,1.45-4.22,1.78-6.13,.63-3.63,.39-6.72-.09-9.01,9.46-10.5,5.76-30.77,3.04-46.53Z"/><path class="cls-3" d="M212.54,79.9c-11.86-5.85-25.55-5.04-38.45-1.82-2.68,.67-5.17,1.3-8.12,.3-6.29-2.13-10.84-5.3-12.91-7.82-.15-.19-.28-.37-.4-.55-.35,.53-.72,1.07-1.13,1.61,.69,6.31-1.25,11.01-3.96,14.39,2.65,3.39,7.22,7.89,9.95,9.39,2.94,1.62,4.79,1.92,9.59,1.15-1.78,1.85-3.03,2.71-5.31,3.9,.18,2.09,.67,5.61,1.43,9.52,.8,.79,3.36,2.24,6.5,3.72,4.01,1.89,8.97,3.84,12.44,4.51,6.28,1.23,19.07,.13,22.72-.35v-.03c.05,0,.1,.01,.16,.01-.56-13.4,2.93-20.36,5.58-25.73,2.43-4.97,2.28-9.78,1.91-12.2Z"/><path class="cls-3" d="M168.96,29.13c.33,3.45,1.31,5.78,3.08,8.5,.74,.49,1.46,.91,2.18,1.07,3.1,.69,8.76,.73,11.78-.06h0c1.78-.4,3.98-3.56,4.49-6.15,.63-3.36,1.29-5.79,1.39-7.85,.27-2.06,.53-6.69,.67-7.95,.28-2.07,0-5.16-.25-7.11-.12-.95-.24-1.63-.28-1.79-.42-1.48-3.91-4.04-12.13-4.03-8.71,.02-11.25,2.66-11.44,4.07-.02,.15-.1,.79-.19,1.65-.2,1.8-.49,4.58-.54,5.96,0,.06,0,2.58,.16,6.41,.11,2.53,.76,3.98,1.08,7.28Z"/><path class="cls-3" d="M147.15,255.03c1.06,.3,1.83,1.61,2.15,.83,.59-1.44-1.19-4.07-1.3-6.09,0-.22,0,0,0-.22-1.41-1.28-11.1-1.45-10.46-.72-1.11,2.14-2.89,1.68-3.57,5.8-.34,2.06,2.27,.31,4.61,.21-4.26,2.85-9.2,6.53-9.94,9.72-1.02,4.38,.64,5.66,5.33,8.12h0c4.07,.92,8.99,1.08,12.84,.89h0c4.22-.74,5.12-2.8,3.82-5.74-1.87-4.22-3.07-9.8-3.49-12.8Z"/><path class="cls-3" d="M143.29,123.6c-.88,4.73,1.42,6.76,5.28,9.47,1.81,1.27-.11,1.41,1.42,2.16,1.62,.8,3.37,1.46,4.99,.6,.48-.26,1.2-1.05,1.65-1.32,.58-.34,2.74-2.1,3.37-2.61,.63-.51,1.97-2.01,2.45-2.57,.81-.88,1.74-2.2,1.82-2.69,.37-1.64-2.18-3.29-3.78-4.92-2.76-2.82-6.83-3.92-10.96-3.94h-.07c-6.85-7.34-9.64-14.13-11.75-19.12-2.49-5.88-5.32-9.17-10.95-13.71,2.91,1.14,5.04,2.15,6.4,3.11,1.46,1.03,3.5,1.03,5.35,.51,6.79-2.27,10.45-11.84,10.84-17.83,.67-.9,1.74-2.94,2.3-3.8,.02-.04,.1,.03,.2,.16,.36,.28,1.22,.92,2.34,1.73,2.29,1.67,5.65,4.01,7.96,5.22,3.82,2,6.37,2.09,14.87-.26,6.11-1.69,13.37-2.17,18.86-2.11,5.6,.06,10.46,1.48,15.15,3.5,2.28,.98,6.28,3.67,7.2-.72,.38-5.51-1.59-10.91-4.52-14.7-.14-.08-.29-.21-.41-.37-.61-.76-5.61-4.14-7.45-4.91-.37-.16-.77-.34-1.16-.53-.07-.02-.14-.03-.2-.06-.06-.02-.14-.04-.24-.06-.44-.11-1.17-.29-2.11-.71l-.33-.15c-.56-.25-1.06-.47-1.6-.61-.49-.12-1.01-.18-1.63-.11-.71,.08-1.37,.18-1.98,.29-1.92,.34-3.4,.79-4.74,1.19-1.92,.58-3.58,1.08-5.75,1.08-1.18,0-2.52-.15-4.12-.52-1.9-.43-3.41-.84-4.75-1.2-3.47-.93-5.59-1.5-10.12-1.38-.86,.13-1.83,.25-2.93,.32-2.94,.2-6.16,.14-9.03-.22-2.1-.27-4.02-.7-5.47-1.33-.43-.18-.76-.35-1.03-.49-2.88-.87-5.79-.84-10.47,.03-7.05,1.31-13.92,6.39-14.01,13.67,0,.46,4.86,1.94,6.36,7.76-2.35-3.28-6.47-7.05-11.48-3.83-5.16,3.32-2.51,10.98-9.59,18.93-2.37,2.65-2.02,5.9,.54,12.2,3.96,9.77,22.61,15.16,33.44,24.18-.07,.24-.12,.45-.16,.67Z"/></g><g><path class="cls-4" d="M142.66,90.45c-1.61,1.07-3.14,1.8-4.28,2.22,4.07,6.23,1.92,10.98,12.16,23.27h0c1.32,.08,4.53,.37,7.36,1.39,.1-1.2,.21-2.24,.42-3.69h.46c-.98-5.18-1.32-7.95-2.24-11.83-4.66-2.95-9.46-6.22-13.88-11.36Z"/><path class="cls-4" d="M145.41,135.86c-.06-.34-.09-.71-.03-1.05,.04-.23,.4-.8,.38-.91-.07-.37-1.29-1.16-1.56-1.42-1.73-1.68-3.1-3.37-3.39-5.84-.06-.48,.17-1.62-.03-2.04-.17-.37-.89-.73-1.22-.99-1.02-.8-2.09-1.54-3.18-2.25-2.01-1.29-4.12-2.44-6.25-3.51-7.83-3.92-17.21-6.87-22.8-14.02-1.64-2.09-2.68-4.47-3.67-6.91-1.02-2.5-2.42-5.76-1.54-8.49-2.47,.99-5.01,1.78-7.46,2.84-3.01,1.3-5.98,2.69-8.94,4.11-7.66,3.68-15.22,7.57-22.73,11.54-4.27,2.26-8.53,4.55-12.76,6.89,4.15,4.39,6.49,10.27,8.01,16.03,1.54,5.86,1.79,11.84,2.88,17.77,1.02,5.58,2.98,11.11,6.59,15.55,3.83,4.71,9.23,7.66,15.03,9.22,6.29,1.7,12.69,1.72,19.16,1.72s12.53,.83,18.29,3.29c5.83,2.5,10.67,6.65,14.41,11.73,.86,1.17,1.68,2.26,2.87,3.12,.58,.42,1.21,.78,1.86,1.06,.2,.08,.56,.28,.75,.28,.58,.02,.59-.2,.95-.66,.98-1.29,2.03-2.53,3.06-3.79,.53-.65,1.06-1.3,1.58-1.96,.23-.29,.65-.68,.79-1.03,.21-.55-.08-1.2-.21-1.81-3.3-15.51,.49-31.02,5.6-45.67-2.32-.06-4.86-1.1-6.44-2.8Z"/><path class="cls-4" d="M107.04,81.58c.86-1.72,1.6-3.89,2.55-7.35,2.71-9.79,8.15-10.06,10.51-10.46,.17-3.29,1.23-6.03,2.84-8.27-24.63,6.9-50.22,15.43-78.16,32.66-11.66,7.19-36.01,23.36-40.76,54.26,6.93-7.67,17.37-16.08,30.49-24.43h0c.15-.1,.29-.19,.44-.28,3.68-2.33,7.56-4.66,11.64-6.96,.04,.03,.09,.06,.13,.09,6.34-3.52,13.08-7.02,19.67-10.31,19.29-9.63,37.36-17.52,40.65-18.95Z"/><path class="cls-4" d="M232.49,265.38c-.19-.24-.45-.48-.8-.72-2.3-1.55-11.37-3.33-15.42-6.44-3.82-2.92-14.61-7.66-14.75-8.88,0-.12-.03-.25-.04-.38-.39-4.11-.56-15.66-.1-21.98,0-.05,0-.1,0-.14,.07-.97,.16-1.81,.27-2.47,0-.06,.02-.13,.03-.19s.02-.11,.03-.17c.8-5.08,1.85-12.01,2.24-13.96,.3-1.5,1.22-2.94,.51-3.28,0,0-.02,0-.02,0-.24-.1-.64-.09-1.3,.07-2.71,.67-12.85,2.11-20.43,1.55-5.16-.38-7.3-1.22-8.28-1.54-.12-.04-.22-.07-.31-.09-.25-.06-.38-.05-.48,.08-1.12,1.53,.14,7.55,1.76,13.43,.85,3.07,2.2,5.5,3.43,8.48,1,2.44,1.91,5.24,2.37,9.06,.06,.47,.11,.94,.15,1.45,.67,7.91,.88,10.11-.61,13.86-.31,.77-.68,1.6-1.14,2.57-1.5,3.14-2.41,6.07-1.32,8.08,.05,.09,.1,.18,.16,.26,.74,1.12,2.17,1.91,4.58,2.25,.75,.1,1.59,.17,2.54,.18,9.47,.11,14.48-.11,23.95,1.22,7.11,1,10.79,1.56,14.41,1.45,1.2-.04,2.4-.15,3.72-.34,3.36-.49,5.01-1.39,5.18-2.38,.03-.35-.08-.69-.34-1.02Z"/><path class="cls-4" d="M198.43,51c1.79-.21,3.15,.71,4.4,1.35,.95,.48,2.2,.65,3.22,1.13,.05,.02,.11,.04,.16,.07,0,0,.03,0,.05,0,2.21,1.06,4.91,2.49,6.45,4.13h0c.06,.04,.11,.09,.17,.13,2.73-.39,4.81-.49,6.2-.49-.44-1.22-.72-3.72-5.14-1.64-1.66-1.97-2.22-3.68-5.85-2.44-.22-.54-.48-.94-.77-1.23-.04-.07-.09-.13-.14-.2-.32-.45-.74-.98-1.26-1.58-2.32-2.65-7.47-4.73-11.43-2.24-2.25,1.41-6.79,4.17-9.68,3.58-2.74-.56-11.96-2.73-17.42-4.9-.16-.06-.3-.12-.45-.19-1.81-1.6-4.45-3.03-9.55-3.47-2.15-.19-3.6,1.61-5.28,2.77,.82,.82,1.6,2.05,1.99,3.37-1.37-1.66-3.97-3.68-6.5-4.17-2.24-.43-3.87,1.19-6.34,2.49,2.89-.02,5.44,.43,7.59,1.28h.02s.05,.02,.07,.04c.61,.24,1.19,.52,1.74,.83,4.94,1.96,10.97,1.3,13.4,1.14,.19,0,.99-.13,1.99-.29h0c.23-.02,.44-.03,.67-.04,6.73-.38,8.58,1.08,15.27,2.6,6.9,1.58,8.5-1.11,16.42-2.04Z"/></g><path d="M232.88,262.26c-4-2.07-8.41-3.29-12.49-5.22-2.85-1.35-5.58-2.92-8.19-4.69-1.36-.93-2.7-1.85-4.12-2.7-1.05-.63-2.35-1.27-3.14-2.24-1.02-1.26-.79-3.5-.84-5.02-.1-3.04-.08-6.09-.04-9.14,.08-6.15,.9-12.06,2.11-18.08,.55-2.74,1.54-5.76,1.47-8.58-.06-2.2-1.44-2.41-3.3-2.05,.36-1.59,.66-3.21,1.08-4.79,.43-1.61,1.37-3.09,1.85-4.72,.71-2.41,1-4.96,.82-7.47-.05-.66-.25-1.35-.26-2.01,0-.6,.05-.62,.46-1.2,1.25-1.77,2.19-3.73,2.91-5.77,3.14-8.95,2.54-19.11,1.3-28.35-.54-4.02-1.27-8.01-2.19-11.96,2.59,1.23,5.41,2.22,8.29,2.38,.59,.03,2.22,.23,2.74-.19,4.07-2.24,6.59-6.69,8.31-10.9,.23-.58,.41-1.19,.66-1.76,.29-.66,.77-1.06,1.28-1.61,2.04-2.22,3.83-4.69,5.22-7.37,2.57-4.97,3.75-10.94,1.51-16.25-.55-1.3-1.28-2.52-2.15-3.63-.43-.54-.89-1.06-1.37-1.55-.27-.27-.74-.58-.95-.89-.41-.17-.46-.43-.17-.8,.1-.33,.2-.66,.28-1,.74-3.08,.5-6.33-.67-9.28-.42-1.05-.94-2.07-1.59-3-.14-.21-.65-.65-.69-.89-.07-.45,.54-1.51,.67-1.99,.66-2.43,.84-5,.49-7.49-.43-3.09-1.7-6.02-3.62-8.49-.98-1.26-2.11-2.42-3.39-3.38-1.36-1.01-3.58-1.51-4.48-2.89-1.29-1.97-2.39-3.91-5.04-3.64-.22,.02-.5,.12-.71,.11-.62-.03-.34,0-.79-.42-.34-.3-.56-.75-.88-1.08-.78-.83-1.61-1.12-2.75-.97-.32,.04-1.44,.5-1.64,.39-.23-.13-.5-.89-.65-1.11-.92-1.34-2.34-2.33-3.71-3.18-1.34-.83-2.83-1.45-4.4-1.7-.84-.13-1.7-.16-2.55-.07-.54,.05-1.93,.55-2.2,.3-.56-.54-.31-2.72-.33-3.35-.05-1.76-.12-3.52-.19-5.28-.12-2.92,.09-5.66,.39-8.56,.58-5.6,1.44-11.28,1.23-16.91-.09-2.39-.24-5.3-1.7-7.31-1.05-1.43-2.73-2.31-4.35-2.92C186.17-.01,181.33-.22,176.86,.17c-3.54,.31-8.26,.93-10.91,3.59-1.05,1.05-1.24,2.64-1.48,4.05-.43,2.64-.62,5.32-.69,7.99-.14,4.9,.32,9.88,1.27,14.69,.26,1.33-.03,2.67-.2,4.01-.13,1-.27,2.01-.43,3.01-.12,.74-.13,2.2-.53,2.83-.55,.88-2.31,1.06-3.21,1.29-.97,.25-1.46,.4-2.4,.11-.96-.3-1.87-.54-2.87-.31-1.33,.3-2.43,1.23-3.52,1.98-.62,.43-1.19,1-1.88,.86-.5-.1-1.06-.48-1.54-.65-1.15-.39-2.56-.76-3.76-.4-1.53,.46-2.84,1.77-4.22,2.54-.32,.18-.68,.42-1.03,.52-.68,.19-.39,.08-.99-.03-.57-.1-1.09-.37-1.68-.41-1.49-.12-2.93,.52-4.25,1.15-1.46,.69-2.84,1.55-4.09,2.56-1.45,1.17-3.53,1.35-5.34,1.84-13.27,3.56-26.3,8.06-39.1,13.04-7.27,2.82-14.26,5.85-21.16,9.47-10.64,5.58-21.59,11.27-31.17,18.58-10.28,7.86-19.11,18.35-25.06,29.84-2.71,5.23-4.76,10.81-5.89,16.59-.26,1.32-2.05,10.28,1.2,9.92,1.22-.13,2.11-1.65,2.88-2.46,1.2-1.27,2.5-2.45,3.81-3.62,3.66-3.27,7.48-6.38,11.35-9.4,3.96-3.09,7.99-6.1,12.18-8.87,2.62-1.73,5.41-3.09,8.1-4.7,.62-.37,1.22-.77,1.83-1.16,.6-.38,1.19-.76,1.79-1.14,.35-.22,1.96-1.57,2.38-1.49,.73,.13,2.06,2.18,2.51,2.77,.84,1.1,1.59,2.27,2.25,3.48,2.87,5.3,4.15,11.35,5.08,17.25,.97,6.14,1.36,12.22,4.02,17.93,2.16,4.64,5.43,8.68,9.49,11.8,4.06,3.11,8.8,5.26,13.72,6.58,5.76,1.55,11.51,1.65,17.41,1.92,9.7,.44,19.58,2.08,26.86,9,3.57,3.39,5.96,8.46,10.76,10.24-4.5,8.34-4.41,17.95-4.53,27.16-.06,4.41-.07,8.81-.18,13.22-.08,3.08,.07,6.38-.53,9.42-.37,1.86-1.66,3.4-2.21,5.23-.64,2.13-1.1,4.05-2.32,5.95-1.2,1.87-2.4,3.69-2.96,5.88-.93,3.6-.31,7.47,2.88,9.67,2.88,1.99,6.43,3.05,9.87,3.47,3.88,.47,8.06,.12,11.87-.79,1.95-.47,3.6-1.33,3.97-3.45,.43-2.54-.23-5.4-.93-7.84-.46-1.59-.92-3.21-1.07-4.87-.14-1.55,.52-2.91,.42-4.43-.06-.86-.27-1.7-.49-2.52-.15-.54-.55-1.32-.51-1.9,.03-.32,.2-.45,.35-.75,.35-.73,.48-1.63,.61-2.42,.47-2.81,.17-5.74,.41-8.58,.15-1.82,.38-3.66,.9-5.41,.49-1.65,1.29-3.22,1.95-4.81,.99-2.39,1.85-4.88,3.13-7.13,1.11-1.96,2.09-4,2.85-6.12,1.11-3.08,1.72-6.45,2.06-9.7,.11-1.06,.17-2.12,.2-3.19,0-.58,0-1.16,0-1.74,0-.59-.28-1.81-.1-2.36,.11-.34,.58-.72,.8-.99,.49-.61,.96-1.24,1.35-1.92,.44-.76,.8-1.58,1.05-2.42,.16-.55,.15-1.78,.45-2.2,.26-.37,1.14-.7,1.51-.95,2.61-1.79,4.95-3.98,6.99-6.39,1.5-1.77,2.84-3.67,4-5.68,.81,2.76,1.77,5.48,2.48,8.28,.29,1.15,.54,2.32,.66,3.5,.05,.53,.08,1.06,.08,1.59,0,1-.3,1.08-1.08,1.72-3.35,2.77-6.63,6.08-7.73,10.43-3.97-1.86-3.89,2.9-3.81,5.45,.14,4.4,.83,8.89,2.04,13.12,.67,2.33,1.72,4.52,2.57,6.79,.98,2.61,1.76,5.29,2.32,8.02,.63,3.06,1.01,6,.58,9.11-.39,2.83-1.2,5.59-2.14,8.28-1.07,3.06-2.38,5.88-1.43,9.19,1.21,4.22,5.15,5.19,8.99,5.65,9.36,1.12,18.8-.15,28.17,.91,6.14,.69,12.97,2.07,19,.05,1.85-.62,4.27-1.78,4.77-3.89,.49-1.98-1.16-3.51-2.74-4.34Zm-82.89-127.04c-.68-.34-.46-.43-.59-.95-.18-.72-.55-.99-1.17-1.45-1.4-1.02-2.87-2.05-3.89-3.47-.92-1.28-1.29-2.77-1.22-4.34,.02-.48,.09-.95,.17-1.42,.09-.51,.14-.51-.15-.9-.51-.69-1.59-1.24-2.28-1.74-6.17-4.43-13.12-7.59-19.6-11.51-2.85-1.72-5.68-3.6-8.03-5.99-2.39-2.44-3.68-5.34-4.65-8.59-.88-2.92-1.19-5.84,.87-8.31,2.71-3.27,4.34-6.76,5.42-10.85,.89-3.36,1.64-6.9,5.04-8.57,4.28-2.1,8.18,.94,10.61,4.33-.8-3.11-2.8-5.42-5.47-7.1-1.03-.65-.97-.86-.77-2.21,.28-1.86,1.03-3.62,2.12-5.14,2.26-3.16,5.8-5.3,9.47-6.42,3.76-1.15,8.23-1.75,12.09-.78,.86,.22,1.63,.68,2.46,.97,1.19,.42,2.43,.68,3.67,.88,2.49,.4,5.04,.52,7.56,.48,2.49-.04,4.95-.49,7.44-.44,1.97,.05,3.89,.32,5.8,.78,4.25,1.03,8.63,2.8,13.07,2.19,2.13-.29,4.16-1.09,6.24-1.62,2.15-.55,4.62-1.26,6.78-.44,2.98,1.13,5.77,2.19,8.46,3.93,1.19,.77,2.44,1.55,3.5,2.5,1.28,1.15,2.18,2.68,2.95,4.21,1.04,2.08,1.76,4.32,2.11,6.62,.28,1.82,.8,4.7-.52,6.24-1.87,2.18-6.06-.82-8.02-1.6-9.05-3.6-18.97-3.44-28.45-1.67-4.18,.78-8.24,2.41-12.51,2.66-2.8,.16-5.18-.74-7.56-2.14-1.87-1.1-3.67-2.34-5.44-3.6-.89-.63-1.77-1.27-2.64-1.92-.5-.37-.97-.97-1.39-.72-.54,.32-1.03,1.79-1.36,2.33-.47,.78-.78,1.23-.88,2.13-.18,1.66-.56,3.29-1.05,4.88-1.9,6.03-8.09,15.85-15.57,11.22-1.84-1.14-3.87-1.97-5.89-2.76,4.01,3.23,7.57,6.79,9.9,11.44,2.14,4.26,3.71,8.7,6.22,12.78,1.61,2.62,3.45,5.09,5.48,7.39,.61,.69,.8,1.08,1.63,1.22,.59,.1,1.22,.05,1.82,.12,1.48,.16,2.95,.48,4.33,1.02,2.61,1.01,4.56,2.91,6.54,4.82,.68,.66,1.67,1.56,1.63,2.61-.04,1.11-1.18,2.2-1.86,2.98-1.47,1.69-3.06,3.11-4.83,4.47-.85,.65-1.72,1.52-2.64,2.03-1.57,.91-3.45,.16-4.95-.58Zm.75,1.21c-2.16-.09-2.9-1.85-4.72-2.57,.57-.47,4.24,2.19,4.72,2.57Zm7.58-22.78c-.18,1.23-.31,2.46-.42,3.69-1.86-.67-3.83-1.04-5.79-1.26-.43-.05-1.18,.04-1.57-.14-.77-.35-1.77-2.2-2.27-2.86-1.98-2.64-3.76-5.45-5.1-8.47-1.74-3.93-2.42-8.31-4.79-11.94,1.36-.5,2.52-1.42,3.84-1.94,.59-.23,.28-.27,.79,.12,.32,.25,.6,.67,.88,.97,.58,.62,1.17,1.22,1.79,1.81,2.21,2.13,4.64,4.02,7.16,5.75,1.03,.71,2.69,1.38,3.52,2.31,.65,.73,.72,2.52,.91,3.52,.54,2.8,.98,5.63,1.51,8.43-.14,.01-.32,.04-.46,.01Zm4.9-3.68c-.55-2.84-1.03-5.71-1.33-8.59-.08-.72-.15-.89,.52-1.26,.54-.3,1.08-.6,1.6-.94,1.14-.75,2.15-1.65,3.1-2.63-3.15,.5-6.07,.65-8.97-.82-2.93-1.48-5.38-3.96-7.61-6.32-.58-.62-1.15-1.24-1.71-1.89-.27-.32-.7-.69-.89-1.07-.29-.59-.36-.41,.08-1,.97-1.3,1.77-2.71,2.36-4.22,.67-1.69,1.08-3.48,1.23-5.29,.08-.94,.1-1.88,.05-2.82-.02-.41-.23-1.11-.12-1.5,.14-.5,.83-1.16,1.13-1.61,2.49,3.65,7.18,5.99,11.15,7.58,2.85,1.14,5.39,1.58,8.41,.94,2.82-.6,5.6-1.35,8.45-1.85,5.73-1,11.6-1.42,17.41-.83,2.81,.29,5.6,.82,8.31,1.64,1.32,.4,2.63,.86,3.9,1.39,.58,.24,1.28,.45,1.8,.8,.57,.39,.51,.6,.58,1.31,.43,4.75-1.02,8.9-3.03,13.11-1.54,3.23-2.79,6.56-3.56,10.06-.52,2.38-.84,4.81-.99,7.24-.08,1.35-.12,2.71-.11,4.07,0,.49,.23,1.63,.05,2.08-.16,.41-.11,.22-.58,.35-1.45,.39-3.18,.33-4.66,.45-2.21,.17-4.42,.3-6.64,.36-4.78,.14-9.55,.09-14.15-1.34-3.03-.94-5.98-2.16-8.86-3.5-2.26-1.04-5.11-2.12-6.92-3.9Zm55.71,8.31c-1.5,.89-3.52,.59-5.17,.46-2.23-.18-3.76,.02-5.5,1.55,.5-5.84,.73-11.55,2.63-17.17,1.07,.97,2.44,1.53,3.83,1.87-1.34,2.84-1.37,5.8,.43,8.42,1.1,1.59,3.2,2.96,3.78,4.87Zm8.5-36.76c2.7,3.1,4.42,7.32,4.11,11.46-.15,2.05-.46,3.74-2.27,4.79-2,1.16-3.7,2.4-4.92,4.42,2.39-1.36,5.61-2.92,8.42-1.99,2.59,.86,3.57,3.75,3.86,6.21,.76,6.65-3.13,13.51-7.44,18.28-.08-.16-.16-.32-.23-.48-.54,2.24-1.16,4.42-2.21,6.48-1.32,2.61-3.47,6.23-6.32,7.35-2.73,1.08-6.21-.42-8.56-1.84-.62-.37-1.33-.72-1.88-1.18-.64-.53-.59-1.14-.77-2-.3-1.47-.67-2.95-.84-4.45-.05-.46-.06-.9-.07-1.36-.02-.6-.3-1.7-.09-2.21,.23-.57,1.24-1.31,1.72-1.8,.68-.71,1.5-1.32,2.41-1.7,1.48-.62,3.08-.36,4.64-.49,1.29-.11,2.76-.26,3.93-.85,.93-.48,.63-1.31,.38-2.22-.42-1.5-1.44-2.68-2.33-3.93-1.28-1.79-2.03-3.69-2.03-5.92,0-1.13-.06-3.01,.6-3.97,.65-.94,2.31-1.12,3.31-1.2-1.63-.31-3.32-.57-4.86-1.22-.67-.28-1.3-.65-1.9-1.07-.37-.26-.72-.55-1.07-.85-.62-.53-.65-.49-.29-1.3,1.59-3.54,4.04-6.85,4.45-10.79,.15-1.48,.11-3-.1-4.47-.02-.15-.22-.73-.15-.88,.18-.4,2.24-.99,2.72-1.24,1.87-1,2.26-2.09,2.53-4.18,.26-2.02,.1-4.08-.4-6.06-1.12-4.44-3.85-8.4-7.14-11.52,6.09-.51,11.29,2.63,13.68,8.31,1.9,4.56,.9,9.46-.89,13.87Zm-61.34-40.45c.37-1.97,.62-3.92,.76-5.92,1.04,1.05,2.07,2.09,3.14,3.11,.76,.73,1.55,1.63,2.5,2.11,1.98,1,4.68,.69,6.82,.69s4.93,.55,7.01-.19c2.29-.81,4.41-2.92,6.13-4.56,.17,2.41,.34,4.83,.23,7.24-.04,.83-.13,1.67-.1,2.5,0,.26,.09,.55,.07,.81-.04,.59,.13,.45-.5,.82-1.62,.95-3.28,2.07-5.12,2.56-1.29,.35-2.51-.07-3.77-.37-3.37-.8-6.72-1.72-9.97-2.92-1.32-.49-3.11-.97-4.2-1.89-.76-.64-1.38-1.76-2.04-2.54-.25-.29-1.05-.99-.96-1.45ZM192.01,7.78c.95,3.33,.66,7.07,.41,10.46-.26,3.5-.46,7-1.16,10.45-.69,3.35-1.34,8.7-5.26,9.94-3.31,1.05-7.61,.79-10.99,.21-.96-.16-2-.45-2.76-1.09-.78-.65-1.3-1.87-1.73-2.79-.98-2.04-1.37-4.15-1.62-6.38-.22-1.93-.74-3.82-.94-5.75-.21-2-.2-4.06-.23-6.07-.02-1.18,.05-2.34,.15-3.52,.16-1.77,.14-3.76,.58-5.48,.43-1.69,2.36-2.55,3.86-3.05,4.18-1.38,9.24-1.33,13.52-.44,1.86,.41,5.54,1.29,6.17,3.51Zm-44.42,37.21c2.53,.49,5.13,2.51,6.5,4.17-.36-1.25-1.06-2.45-1.99-3.37,1.15-.79,2.14-1.88,3.44-2.45,1.46-.63,3.21-.23,4.71,.07,2.36,.47,4.36,1.36,6.3,2.75,2.05,1.47,5.16,2.04,7.57,2.73,2.63,.76,5.29,1.44,7.96,2.07,2.15,.5,3.96,.92,6.14,.22,2.56-.83,4.62-2.47,7.02-3.6,2.66-1.25,5.83-.7,8.3,.74,1.17,.68,2.1,1.55,2.95,2.6,.35,.43,.72,.88,1.04,1.34,.1,.14,.25,.48,.39,.61,.05,.44,.26,.52,.63,.23,.27-.08,.54-.15,.82-.2,1.21-.2,2.21,.06,3.07,.93,.4,.4,.67,.98,1.1,1.34,.12,.1,.28,.47,.41,.51,.28,.07,1.31-.54,1.65-.63,2.13-.55,2.85,.48,3.49,2.27-1.23,0-2.46,.07-3.69,.19-.69,.07-1.57,.36-2.24,.26-.58-.08-.88-.55-1.36-.95-2.12-1.75-4.76-3.13-7.38-3.92-1.22-.37-2.23-1-3.39-1.48-1.6-.67-3.13-.41-4.79-.11-2.33,.42-4.55,1.2-6.85,1.75-5.25,1.26-10.12-.92-15.17-2.09-4.68-1.08-9.15-.13-13.84,0-3.19,.09-6.72-.06-9.69-1.36-3.09-1.35-5.99-2.16-9.42-2.14,2.46-1.29,4.08-2.91,6.32-2.48ZM4.01,142.44c2.87-18.65,13.85-34.34,28.48-45.82,6.15-4.82,12.84-8.93,19.61-12.8,11.01-6.3,22.5-11.75,34.32-16.38,11.93-4.67,24.18-8.48,36.51-11.93-1.54,2.15-2.47,4.67-2.76,7.3-.12,1.09-.09,.96-1.02,1.12-.5,.09-1,.18-1.49,.32-3.28,.93-5.49,3.52-6.86,6.55-1.14,2.54-1.66,5.31-2.59,7.93-.27,.78-.52,1.93-1.05,2.59-.3,.37-.62,.47-1.08,.68-2.87,1.25-5.73,2.53-8.59,3.81-10.54,4.75-21.01,9.68-31.35,14.85-11.33,5.67-22.42,11.38-33.04,18.24-10.43,6.75-20.73,14.28-29.09,23.54Zm131.28,47.64c-4.85-6.97-11.63-12.06-19.85-14.33-8.9-2.46-18.06-.94-27.09-2.23-8.15-1.16-16.15-4.37-21.23-11.12-5.09-6.76-6-14.89-7.05-23.01-1.15-8.92-3.49-18.84-9.85-25.57,14.18-7.74,28.45-15.51,43.25-22.03,2.85-1.25,5.78-2.2,8.66-3.36-.9,2.8,.58,6.15,1.63,8.7,1,2.43,2.05,4.77,3.69,6.83,3.11,3.91,7.5,6.52,11.9,8.74,4.77,2.4,9.73,4.42,14.38,7.06,1.13,.64,2.23,1.31,3.31,2.03,1.07,.71,2.66,1.53,3.45,2.56,.43,.56,.23,1.31,.3,2.06,.07,.78,.23,1.57,.52,2.3,.46,1.18,1.32,2.15,2.18,3.05,.4,.41,2.11,1.56,2.23,2.11,.06,.24-.33,.88-.36,1.27-.04,.68,.12,.86,.65,1.31,1.55,1.33,3.79,2.17,5.84,2.23-2.75,7.87-5.17,15.91-6.26,24.2-.57,4.32-.77,8.69-.5,13.05,.14,2.2,.4,4.4,.79,6.57,.17,.96,.71,2.23,.67,3.19-.05,.88-1.24,1.97-1.83,2.7-.77,.96-1.57,1.9-2.34,2.85-.48,.59-1.46,2.33-2.11,2.42-.72,.1-2.06-.89-2.62-1.27-.91-.64-1.73-1.4-2.36-2.31Zm2.24,58.76c-.22-.26,2.73-.44,2.94-.44,1.9,0,3.86,.1,5.73,.5,.43,.09,1.4,.2,1.69,.59,.41,.53,.44,1.93,.68,2.63,.32,.93,1.16,2.48,.79,3.49-.41,1.13-1.5-.37-2.22-.58,.58,4.15,1.63,8.33,3.23,12.21,.56,1.35,1.26,2.9,.42,4.3-.77,1.29-2.59,1.87-3.99,2.04-2.37,.29-4.94,.09-7.32-.1-2.26-.18-4.66-.3-6.66-1.4-2.85-1.57-4.95-3.28-4.34-6.79,.82-4.74,6.44-8,10.09-10.44-1.26,.05-2.63,.91-3.85,.79-1.28-.13-.69-1.6-.41-2.47,.62-1.92,2.35-2.65,3.22-4.33Zm50.28-52.97c-.1-3.59-.52-7.17-1.55-10.62-.82-2.74-2-5.35-3.09-7.99-.28-.69-.65-1.4-.85-2.12-.27-.95,.32-1.79,.67-2.73,.68-1.81,1.22-3.67,1.66-5.55,.84-3.63,1.3-7.34,1.82-11.02,.68-4.83,1.5-9.63,2.78-14.35-1.15,1.21-1.81,2.91-2.4,4.44-.86,2.25-1.53,4.58-2.15,6.91-1.21,4.53-2.11,9.14-3.54,13.61-1.44,4.54-3.47,8.89-6.29,12.73-1.54,2.09-3.29,4.01-5.21,5.75-.99,.9-2.02,1.75-3.09,2.55-.43,.32-1.53,.83-1.82,1.3-.29,.48-.14,1.67-.29,2.28-.56,2.37-1.98,4.14-3.62,5.86-1.8,1.89-3.08,3.82-3.59,6.43,.54-.76,1.21-1.48,1.94-2.07,.17-.13,.53-.5,.75-.51,.41-.02,.12-.16,.3,.28,.31,.76-.08,2.34-.13,3.18-.05,.86-.07,1.74-.18,2.57-.56,3.99-1.74,8.06-3.2,11.84-2.25,5.86-5.7,11.18-6.35,17.53-.31,3.02-.3,6.05-.5,9.07-.05,.77,.06,1.26-.62,1.54-1.58,.65-4.16,.18-5.8-.02-1.72-.22-3.44-.56-5.1-1.06-.41-.12-1.35-.27-1.67-.6-.46-.47,.02-2.05,.11-2.81,.5-4.32,.66-8.66,.87-13,.43-9.09,1.06-18.62,4.23-27.18,1.36-3.66,3.42-6.8,5.82-9.86,1.38-1.76,3.09-3.45,4.28-5.34,.44-.7,.08-1.25-.15-2.05-2.81-9.44-2.53-19.3-.87-28.94,.75-4.33,1.76-8.6,2.95-12.83,.34-1.19,.69-2.38,1.05-3.57,.18-.58,.26-1.31,.7-1.68,.3-.25,.8-.39,1.15-.61,1.28-.81,2.65-1.68,3.82-2.63,1.95-1.6,3.48-3.67,5.34-5.38,1.34-1.23,1.84-2.53,.83-4.18-.97-1.59-2.76-2.49-3.75-4.01-.34-.52-.25-.6-.03-1.19,.15-.41,.25-.68,.32-1.06,.22-1.23,.28-2.52,.45-3.76,.8,.71,2.02,1.07,2.99,1.42,3.05,1.11,6.21,2.01,9.36,2.77,7.02,1.7,14.42,1.84,21.6,1.45,2.31-.13,4.63-.32,6.92-.61-.47,3.45,.33,7.01,.93,10.43,.62,3.58,1.62,7.09,2.22,10.64,1.31,7.61,2.6,15.29,2.69,23.04,.08,6.73-.69,14.05-4.67,19.71-.33,.47-1.28,1.25-1.42,1.79-.17,.62,.34,2,.39,2.68,.18,2.18,.05,4.39-.34,6.54-.4,2.2-1.13,4.25-1.91,6.33-.4,1.07-.53,2.31-.98,3.34-.19,.45,0,.32-.39,.54-.18,.1-.61,.08-.81,.1-.7,.08-1.39,.16-2.09,.24-6.79,.7-13.99,1-20.69-.6,1.48-4.64,4.87-9.07,10.2-8.96Zm-12.41,24.38c-.68-2.46-1.31-4.95-1.76-7.47-.29-1.62-.74-3.61-.3-5.24,.35-1.3,1.4-.57,2.35-.29,1.55,.46,3.15,.73,4.75,.92,4.47,.53,8.99,.38,13.46-.03,1.97-.18,3.93-.41,5.88-.7,1.26-.19,2.53-.57,3.79-.71,2.11-.23,.58,2.35,.33,3.48-.31,1.46-.51,2.96-.75,4.44-.64,4.04-1.48,8.11-1.79,12.19-.54,7.12-.53,14.47,.05,21.59,.09,1.07,.29,1.34,1.17,1.94,1.1,.75,2.29,1.37,3.45,2,2.92,1.58,5.92,3.06,8.73,4.84,1.23,.78,2.36,1.69,3.67,2.36,1.64,.84,3.38,1.49,5.12,2.09,1.71,.6,3.45,1.13,5.16,1.72,1.14,.4,2.51,.78,3.41,1.63,3.26,3.08-6.24,3.99-7.55,4.06-3.43,.18-6.85-.28-10.24-.74-4.76-.65-9.5-1.36-14.3-1.63-4.47-.25-8.95-.21-13.42-.25-3.53-.03-8.99-.29-8.82-5.06,.14-3.95,3.01-7.22,3.78-11.04,.66-3.28,.14-6.77-.14-10.06-.39-4.56-1.39-8.8-3.23-12.99-1.01-2.33-2.13-4.6-2.8-7.05Z"/><g><path class="cls-5" d="M188.79,258.11c-3.11,0-7.04-1-9.74-2.22l-2.36,3.35,.29,6.54s14.25,3.99,12.49,.77c-1.76-3.23-.68-8.44-.68-8.44Z"/><path class="cls-5" d="M222.08,259.77c-2.84,.11-.95,.67,1.22,3.33s.41,5.55-2.16,6.33l7.43,.47,6.33-3.67s-9.98-6.57-12.82-6.46Z"/><path class="cls-5" d="M203.66,212.14c-4.57,1.5-11.77,2.16-16.54,2.33s-10.35-.25-14-1.5l-.13,3.93s3.45,1.3,15.02,1.5c9.74,.17,15.83-2.16,15.83-2.16l1.24-1.67s3.14-3.93-1.42-2.43Z"/><path class="cls-5" d="M203.16,220.63c-4.53,1.6-10.93,1.67-15.7,1.83-4.77,.17-10.35-.25-14-1.5l1.19,4.18s1.06,.71,12.63,.91c9.74,.17,15.92-2.03,15.92-2.03l.78-1.39s1.02-2.65-.82-2Z"/></g><g><path class="cls-6" d="M105.56,94.33c.57-.92-.82-5.08,1.44-9.01,2.92-5.06,8.58-7.23,.57-3.97-14.21,5.78-50.71,23.88-60.98,29.41t.02,.02c8.52,5.46,12.53,18.39,13.79,31.57,.12,1.23,.27,2.41,.45,3.57,.21,1.09,.36,1.93,.45,2.46,.04,.2,.07,.4,.11,.59,9.33-25.51,42.83-52.54,44.15-54.64Z"/><path class="cls-6" d="M151.19,142.44c-9.55,10.68-33.57,30.57-50.8,31.69,24.26-.61,33.89,11.47,41.09,27.08,7.38-14.61,7.39-28.62,7.28-44.99-.05-6.88,4.91-16.56,2.43-13.78Z"/><path class="cls-6" d="M165.97,78.39l-14.33-11.47s-3.14,8.55-2.76,12.89-5.03,7.53-2.48,9.98,8.99,6.99,11.07,9.53,2.96,19.71,2.96,19.71l6.09,7.66s2.66-5.1,3.03-17.5c.46-15.19-8.22-19.76-9.12-23.87-.91-4.1,1.86-8.41,5.54-6.93Z"/><path class="cls-6" d="M188.13,146.05l-8.6,28.53s4.99,15.73,4.48,17.85c-.5,2.12-9.27,13.17-9.27,13.17l10.94,.96s3.4-6.02,5.87-9.7c2.56-3.8,1.05-4.46,0-12.85s-3.81-26.03-3.42-37.96Z"/><path class="cls-6" d="M184.26,40.84l-12.29-2.23-1.4-3.67-3.56-.15c2.15,4.9,4.94,7.08,9.13,8.62,2.58,.95,12.61,2.25,16.57-2.27,1.78-2.03,.62-7.59,.62-7.59l-9.07,7.29Z"/><path class="cls-6" d="M219.68,101.61c-2.43-2.22-3.8-6.76-4.22-9.18l-5.17,6.97,1.9,3.27s6.86,.37,7.87,.37c.94-.01,.78-.38-.38-1.43Z"/></g></g></g></svg>